<?xml version="1.0" encoding="UTF-8"?>
<svg xmlns="http://www.w3.org/2000/svg" version="1.1" id="circos-plot-9e4dde8f9d42f16d9f661616" class="circos-plot" data-contract-version="2.0" data-coordinate-convention="ZERO_BASED_HALF_OPEN" data-plot-id="v2-cohort-aggregate" data-plot-mode="cohort" data-assembly-id="GRCh38" viewBox="0 0 684 684" preserveAspectRatio="xMidYMid meet">
  <metadata id="circos-metadata-9e4dde8f9d42f16d9f661616">{"sourceResultIds":["result-a","result-b"]}</metadata>
  <defs id="circos-defs-9e4dde8f9d42f16d9f661616">
    <style>.circos-plot{background:#fff;font-family:Arial,sans-serif}.chromosome-sector{stroke:#fff;stroke-width:2}.track-background{fill:#eeeeee;stroke:#fff;stroke-width:1}.circos-event{cursor:pointer;outline:none}.circos-event:focus{stroke:#111;stroke-width:2}.circos-link-endpoint{opacity:.15}.is-selected{stroke:#111;stroke-width:3}.is-related{stroke:#555;stroke-width:2}.is-dimmed{opacity:.18}.chromosome-label{fill:#111;font-size:14px;text-anchor:middle;dominant-baseline:middle}.legend-label{fill:#111;font-size:11px;dominant-baseline:middle}</style>
  </defs>
  <g id="circos-scene-9e4dde8f9d42f16d9f661616" class="circos-scene">
    <g id="circos-background-9e4dde8f9d42f16d9f661616" class="circos-background">
      <rect class="circos-canvas" x="0" y="0" width="684" height="684" fill="#ffffff"/>
    </g>
    <g id="circos-chromosomes-9e4dde8f9d42f16d9f661616" class="circos-chromosomes">
      <path id="chromosome-9e4dde8f9d42f16d9f661616-1" class="chromosome-sector" data-chromosome="1" fill="#ed1c24" d="M 342 32 A 310 310 0 0 1 481.597 65.21 L 474.392 79.496 A 294 294 0 0 0 342 48 Z"/>
      <path id="chromosome-9e4dde8f9d42f16d9f661616-2" class="chromosome-sector" data-chromosome="2" fill="#a93b55" d="M 486.406 67.688 A 310 310 0 0 1 592.159 158.914 L 579.247 168.363 A 294 294 0 0 0 478.953 81.846 Z"/>
      <path id="chromosome-9e4dde8f9d42f16d9f661616-3" class="chromosome-sector" data-chromosome="3" fill="#6a5f8f" d="M 595.316 163.308 A 310 310 0 0 1 642.945 267.623 L 627.413 271.462 A 294 294 0 0 0 582.242 172.53 Z"/>
      <path id="chromosome-9e4dde8f9d42f16d9f661616-4" class="chromosome-sector" data-chromosome="4" fill="#2f83b7" d="M 644.198 272.887 A 310 310 0 0 1 649.301 382.82 L 633.44 380.713 A 294 294 0 0 0 628.6 276.454 Z"/>
      <path id="chromosome-9e4dde8f9d42f16d9f661616-5" class="chromosome-sector" data-chromosome="5" fill="#3aa0a0" d="M 648.541 388.177 A 310 310 0 0 1 615.504 487.931 L 601.387 480.399 A 294 294 0 0 0 632.72 385.794 Z"/>
      <path id="chromosome-9e4dde8f9d42f16d9f661616-6" class="chromosome-sector" data-chromosome="6" fill="#43a765" d="M 612.915 492.682 A 310 310 0 0 1 551.653 570.354 L 540.832 558.568 A 294 294 0 0 0 598.932 484.905 Z"/>
      <path id="chromosome-9e4dde8f9d42f16d9f661616-7" class="chromosome-sector" data-chromosome="7" fill="#4caf45" d="M 547.636 573.978 A 310 310 0 0 1 470.185 624.256 L 463.569 609.688 A 294 294 0 0 0 537.022 562.005 Z"/>
      <path id="chromosome-9e4dde8f9d42f16d9f661616-8" class="chromosome-sector" data-chromosome="8" fill="#6d846f" d="M 465.239 626.45 A 310 310 0 0 1 384.19 649.116 L 382.012 633.265 A 294 294 0 0 0 458.879 611.769 Z"/>
      <path id="chromosome-9e4dde8f9d42f16d9f661616-9" class="chromosome-sector" data-chromosome="9" fill="#98659a" d="M 378.823 649.805 A 310 310 0 0 1 298.557 648.941 L 300.799 633.099 A 294 294 0 0 0 376.923 633.918 Z"/>
      <path id="chromosome-9e4dde8f9d42f16d9f661616-10" class="chromosome-sector" data-chromosome="10" fill="#b24e8e" d="M 293.206 648.136 A 310 310 0 0 1 218.687 626.419 L 225.052 611.739 A 294 294 0 0 0 295.725 632.335 Z"/>
      <path id="chromosome-9e4dde8f9d42f16d9f661616-11" class="chromosome-sector" data-chromosome="11" fill="#cf5f4d" d="M 213.742 624.223 A 310 310 0 0 1 147.071 583.045 L 157.132 570.604 A 294 294 0 0 0 220.362 609.657 Z"/>
      <path id="chromosome-9e4dde8f9d42f16d9f661616-12" class="chromosome-sector" data-chromosome="12" fill="#f07818" d="M 142.894 579.606 A 310 310 0 0 1 90.287 522.944 L 103.279 513.605 A 294 294 0 0 0 153.17 567.343 Z"/>
      <path id="chromosome-9e4dde8f9d42f16d9f661616-13" class="chromosome-sector" data-chromosome="13" fill="#ff8a00" d="M 87.168 518.523 A 310 310 0 0 1 55.424 460.211 L 70.215 454.11 A 294 294 0 0 0 100.32 509.412 Z"/>
      <path id="chromosome-9e4dde8f9d42f16d9f661616-14" class="chromosome-sector" data-chromosome="14" fill="#ffaa00" d="M 53.404 455.192 A 310 310 0 0 1 36.624 395.342 L 52.385 392.589 A 294 294 0 0 0 68.299 449.35 Z"/>
      <path id="chromosome-9e4dde8f9d42f16d9f661616-15" class="chromosome-sector" data-chromosome="15" fill="#ffe100" d="M 35.739 390.005 A 310 310 0 0 1 32.2 330.878 L 48.189 331.452 A 294 294 0 0 0 51.546 387.527 Z"/>
      <path id="chromosome-9e4dde8f9d42f16d9f661616-16" class="chromosome-sector" data-chromosome="16" fill="#f4de1f" d="M 32.441 325.473 A 310 310 0 0 1 39.665 273.49 L 55.27 277.026 A 294 294 0 0 0 48.418 326.326 Z"/>
      <path id="chromosome-9e4dde8f9d42f16d9f661616-17" class="chromosome-sector" data-chromosome="17" fill="#d9aa22" d="M 40.907 268.224 A 310 310 0 0 1 56.051 222.278 L 70.81 228.457 A 294 294 0 0 0 56.447 272.032 Z"/>
      <path id="chromosome-9e4dde8f9d42f16d9f661616-18" class="chromosome-sector" data-chromosome="18" fill="#b96b26" d="M 58.184 217.306 A 310 310 0 0 1 80.139 176.083 L 93.654 184.646 A 294 294 0 0 0 72.833 223.742 Z"/>
      <path id="chromosome-9e4dde8f9d42f16d9f661616-19" class="chromosome-sector" data-chromosome="19" fill="#c75c46" d="M 83.074 171.538 A 310 310 0 0 1 103.349 144.147 L 115.666 154.359 A 294 294 0 0 0 96.438 180.336 Z"/>
      <path id="chromosome-9e4dde8f9d42f16d9f661616-20" class="chromosome-sector" data-chromosome="20" fill="#df6b87" d="M 106.838 140.013 A 310 310 0 0 1 132.919 113.122 L 143.711 124.935 A 294 294 0 0 0 118.976 150.438 Z"/>
      <path id="chromosome-9e4dde8f9d42f16d9f661616-21" class="chromosome-sector" data-chromosome="21" fill="#ee74b0" d="M 136.946 109.508 A 310 310 0 0 1 158.083 92.452 L 167.575 105.332 A 294 294 0 0 0 147.529 121.507 Z"/>
      <path id="chromosome-9e4dde8f9d42f16d9f661616-22" class="chromosome-sector" data-chromosome="22" fill="#bd86a8" d="M 162.466 89.28 A 310 310 0 0 1 187.342 73.335 L 195.324 87.202 A 294 294 0 0 0 171.732 102.324 Z"/>
      <path id="chromosome-9e4dde8f9d42f16d9f661616-X" class="chromosome-sector" data-chromosome="X" fill="#8f8f8f" d="M 192.054 70.677 A 310 310 0 0 1 276.742 38.946 L 280.111 54.588 A 294 294 0 0 0 199.793 84.681 Z"/>
      <path id="chromosome-9e4dde8f9d42f16d9f661616-Y" class="chromosome-sector" data-chromosome="Y" fill="#ed1c24" d="M 282.041 37.854 A 310 310 0 0 1 314.982 33.18 L 316.376 49.119 A 294 294 0 0 0 285.136 53.552 Z"/>
    </g>
    <g id="circos-tracks-9e4dde8f9d42f16d9f661616" class="circos-tracks">
      <g id="track-backgrounds-9e4dde8f9d42f16d9f661616" class="track-backgrounds">
        <path class="track-background" data-background-track="1" data-chromosome="1" d="M 342 56 A 286 286 0 0 1 470.789 86.639 L 466.286 95.568 A 276 276 0 0 0 342 66 Z"/>
        <path class="track-midline" fill="none" stroke="#ffffff" stroke-width="1.8" d="M 342 61 A 281 281 0 0 1 468.538 91.103"/>
        <path class="track-background" data-background-track="1" data-chromosome="2" d="M 475.226 88.925 A 286 286 0 0 1 572.792 173.088 L 564.722 178.994 A 276 276 0 0 0 470.568 97.774 Z"/>
        <path class="track-midline" fill="none" stroke="#ffffff" stroke-width="1.8" d="M 472.897 93.35 A 281 281 0 0 1 568.757 176.041"/>
        <path class="track-background" data-background-track="1" data-chromosome="3" d="M 575.704 177.142 A 286 286 0 0 1 619.646 273.381 L 609.938 275.781 A 276 276 0 0 0 567.533 182.906 Z"/>
        <path class="track-midline" fill="none" stroke="#ffffff" stroke-width="1.8" d="M 571.619 180.024 A 281 281 0 0 1 614.792 274.581"/>
        <path class="track-background" data-background-track="1" data-chromosome="4" d="M 620.802 278.237 A 286 286 0 0 1 625.51 379.66 L 615.597 378.343 A 276 276 0 0 0 611.053 280.467 Z"/>
        <path class="track-midline" fill="none" stroke="#ffffff" stroke-width="1.8" d="M 615.927 279.352 A 281 281 0 0 1 620.553 379.002"/>
        <path class="track-background" data-background-track="1" data-chromosome="5" d="M 624.809 384.602 A 286 286 0 0 1 594.329 476.633 L 585.506 471.925 A 276 276 0 0 0 614.921 383.113 Z"/>
        <path class="track-midline" fill="none" stroke="#ffffff" stroke-width="1.8" d="M 619.865 383.857 A 281 281 0 0 1 589.918 474.279"/>
        <path class="track-background" data-background-track="1" data-chromosome="6" d="M 591.941 481.016 A 286 286 0 0 1 535.422 552.675 L 528.659 545.309 A 276 276 0 0 0 583.202 476.155 Z"/>
        <path class="track-midline" fill="none" stroke="#ffffff" stroke-width="1.8" d="M 587.571 478.586 A 281 281 0 0 1 532.04 548.992"/>
        <path class="track-background" data-background-track="1" data-chromosome="7" d="M 531.715 556.019 A 286 286 0 0 1 460.261 602.404 L 456.126 593.299 A 276 276 0 0 0 525.082 548.536 Z"/>
        <path class="track-midline" fill="none" stroke="#ffffff" stroke-width="1.8" d="M 528.399 552.277 A 281 281 0 0 1 458.194 597.852"/>
        <path class="track-background" data-background-track="1" data-chromosome="8" d="M 455.698 604.428 A 286 286 0 0 1 380.923 625.339 L 379.562 615.432 A 276 276 0 0 0 451.723 595.253 Z"/>
        <path class="track-midline" fill="none" stroke="#ffffff" stroke-width="1.8" d="M 453.711 599.841 A 281 281 0 0 1 380.243 620.385"/>
        <path class="track-background" data-background-track="1" data-chromosome="9" d="M 375.972 625.975 A 286 286 0 0 1 301.92 625.178 L 303.321 615.276 A 276 276 0 0 0 374.785 616.046 Z"/>
        <path class="track-midline" fill="none" stroke="#ffffff" stroke-width="1.8" d="M 375.379 621.011 A 281 281 0 0 1 302.621 620.227"/>
        <path class="track-background" data-background-track="1" data-chromosome="10" d="M 296.984 624.435 A 286 286 0 0 1 228.234 604.399 L 232.212 595.224 A 276 276 0 0 0 298.558 614.56 Z"/>
        <path class="track-midline" fill="none" stroke="#ffffff" stroke-width="1.8" d="M 297.771 619.497 A 281 281 0 0 1 230.223 599.812"/>
        <path class="track-background" data-background-track="1" data-chromosome="11" d="M 223.672 602.374 A 286 286 0 0 1 162.162 564.383 L 168.45 556.608 A 276 276 0 0 0 227.809 593.27 Z"/>
        <path class="track-midline" fill="none" stroke="#ffffff" stroke-width="1.8" d="M 225.741 597.822 A 281 281 0 0 1 165.306 560.495"/>
        <path class="track-background" data-background-track="1" data-chromosome="12" d="M 158.308 561.211 A 286 286 0 0 1 109.775 508.935 L 117.894 503.098 A 276 276 0 0 0 164.731 553.546 Z"/>
        <path class="track-midline" fill="none" stroke="#ffffff" stroke-width="1.8" d="M 161.52 557.378 A 281 281 0 0 1 113.835 506.017"/>
        <path class="track-background" data-background-track="1" data-chromosome="13" d="M 106.897 504.857 A 286 286 0 0 1 77.61 451.06 L 86.855 447.246 A 276 276 0 0 0 115.117 499.163 Z"/>
        <path class="track-midline" fill="none" stroke="#ffffff" stroke-width="1.8" d="M 111.007 502.01 A 281 281 0 0 1 82.232 449.153"/>
        <path class="track-background" data-background-track="1" data-chromosome="14" d="M 75.747 446.429 A 286 286 0 0 1 60.266 391.213 L 70.117 389.492 A 276 276 0 0 0 85.057 442.777 Z"/>
        <path class="track-midline" fill="none" stroke="#ffffff" stroke-width="1.8" d="M 80.402 444.603 A 281 281 0 0 1 65.191 390.352"/>
        <path class="track-background" data-background-track="1" data-chromosome="15" d="M 59.45 386.288 A 286 286 0 0 1 56.184 331.739 L 66.178 332.098 A 276 276 0 0 0 69.329 384.74 Z"/>
        <path class="track-midline" fill="none" stroke="#ffffff" stroke-width="1.8" d="M 64.39 385.514 A 281 281 0 0 1 61.181 331.918"/>
        <path class="track-background" data-background-track="1" data-chromosome="16" d="M 56.407 326.752 A 286 286 0 0 1 63.072 278.794 L 72.824 281.004 A 276 276 0 0 0 66.393 327.285 Z"/>
        <path class="track-midline" fill="none" stroke="#ffffff" stroke-width="1.8" d="M 61.4 327.019 A 281 281 0 0 1 67.948 279.899"/>
        <path class="track-background" data-background-track="1" data-chromosome="17" d="M 64.217 273.936 A 286 286 0 0 1 78.189 231.547 L 87.413 235.409 A 276 276 0 0 0 73.93 276.316 Z"/>
        <path class="track-midline" fill="none" stroke="#ffffff" stroke-width="1.8" d="M 69.074 275.126 A 281 281 0 0 1 82.801 233.478"/>
        <path class="track-background" data-background-track="1" data-chromosome="18" d="M 80.157 226.96 A 286 286 0 0 1 100.412 188.928 L 108.859 194.28 A 276 276 0 0 0 89.312 230.982 Z"/>
        <path class="track-midline" fill="none" stroke="#ffffff" stroke-width="1.8" d="M 84.735 228.971 A 281 281 0 0 1 104.635 191.604"/>
        <path class="track-background" data-background-track="1" data-chromosome="19" d="M 103.12 184.735 A 286 286 0 0 1 121.825 159.465 L 129.524 165.847 A 276 276 0 0 0 111.472 190.234 Z"/>
        <path class="track-midline" fill="none" stroke="#ffffff" stroke-width="1.8" d="M 107.296 187.484 A 281 281 0 0 1 125.674 162.656"/>
        <path class="track-background" data-background-track="1" data-chromosome="20" d="M 125.044 155.65 A 286 286 0 0 1 149.106 130.841 L 155.851 138.225 A 276 276 0 0 0 132.63 162.166 Z"/>
        <path class="track-midline" fill="none" stroke="#ffffff" stroke-width="1.8" d="M 128.837 158.908 A 281 281 0 0 1 152.478 134.533"/>
        <path class="track-background" data-background-track="1" data-chromosome="21" d="M 152.821 127.507 A 286 286 0 0 1 172.321 111.772 L 178.254 119.821 A 276 276 0 0 0 159.435 135.007 Z"/>
        <path class="track-midline" fill="none" stroke="#ffffff" stroke-width="1.8" d="M 156.128 131.257 A 281 281 0 0 1 175.288 115.797"/>
        <path class="track-background" data-background-track="1" data-chromosome="22" d="M 176.365 108.845 A 286 286 0 0 1 199.315 94.135 L 204.304 102.802 A 276 276 0 0 0 182.157 116.998 Z"/>
        <path class="track-midline" fill="none" stroke="#ffffff" stroke-width="1.8" d="M 179.261 112.921 A 281 281 0 0 1 201.81 98.468"/>
        <path class="track-background" data-background-track="1" data-chromosome="X" d="M 203.663 91.683 A 286 286 0 0 1 281.795 62.409 L 283.9 72.185 A 276 276 0 0 0 208.5 100.435 Z"/>
        <path class="track-midline" fill="none" stroke="#ffffff" stroke-width="1.8" d="M 206.081 96.059 A 281 281 0 0 1 282.847 67.297"/>
        <path class="track-background" data-background-track="1" data-chromosome="Y" d="M 286.683 61.401 A 286 286 0 0 1 317.073 57.088 L 317.945 67.05 A 276 276 0 0 0 288.617 71.212 Z"/>
        <path class="track-midline" fill="none" stroke="#ffffff" stroke-width="1.8" d="M 287.65 66.306 A 281 281 0 0 1 317.509 62.069"/>
        <path class="track-background" data-background-track="2" data-chromosome="1" d="M 342 74 A 268 268 0 0 1 462.684 102.71 L 458.18 111.639 A 258 258 0 0 0 342 84 Z"/>
        <path class="track-midline" fill="none" stroke="#ffffff" stroke-width="1.8" d="M 342 79 A 263 263 0 0 1 460.432 107.175"/>
        <path class="track-background" data-background-track="2" data-chromosome="2" d="M 466.841 104.853 A 268 268 0 0 1 558.266 183.719 L 550.197 189.625 A 258 258 0 0 0 462.183 113.702 Z"/>
        <path class="track-midline" fill="none" stroke="#ffffff" stroke-width="1.8" d="M 464.512 109.278 A 263 263 0 0 1 554.232 186.672"/>
        <path class="track-background" data-background-track="2" data-chromosome="3" d="M 560.996 187.518 A 268 268 0 0 1 602.172 277.7 L 592.464 280.099 A 258 258 0 0 0 552.824 193.282 Z"/>
        <path class="track-midline" fill="none" stroke="#ffffff" stroke-width="1.8" d="M 556.91 190.4 A 263 263 0 0 1 597.318 278.9"/>
        <path class="track-background" data-background-track="2" data-chromosome="4" d="M 603.255 282.25 A 268 268 0 0 1 607.666 377.29 L 597.753 375.973 A 258 258 0 0 0 593.506 284.48 Z"/>
        <path class="track-midline" fill="none" stroke="#ffffff" stroke-width="1.8" d="M 598.38 283.365 A 263 263 0 0 1 602.71 376.631"/>
        <path class="track-background" data-background-track="2" data-chromosome="5" d="M 607.01 381.921 A 268 268 0 0 1 578.448 468.159 L 569.626 463.452 A 258 258 0 0 0 597.122 380.431 Z"/>
        <path class="track-midline" fill="none" stroke="#ffffff" stroke-width="1.8" d="M 602.066 381.176 A 263 263 0 0 1 574.037 465.806"/>
        <path class="track-background" data-background-track="2" data-chromosome="6" d="M 576.211 472.267 A 268 268 0 0 1 523.248 539.416 L 516.485 532.05 A 258 258 0 0 0 567.471 467.406 Z"/>
        <path class="track-midline" fill="none" stroke="#ffffff" stroke-width="1.8" d="M 571.841 469.836 A 263 263 0 0 1 519.867 535.733"/>
        <path class="track-background" data-background-track="2" data-chromosome="7" d="M 519.775 542.549 A 268 268 0 0 1 452.818 586.015 L 448.683 576.91 A 258 258 0 0 0 513.142 535.066 Z"/>
        <path class="track-midline" fill="none" stroke="#ffffff" stroke-width="1.8" d="M 516.459 538.808 A 263 263 0 0 1 450.751 581.463"/>
        <path class="track-background" data-background-track="2" data-chromosome="8" d="M 448.542 587.912 A 268 268 0 0 1 378.474 607.506 L 377.113 597.599 A 258 258 0 0 0 444.567 578.736 Z"/>
        <path class="track-midline" fill="none" stroke="#ffffff" stroke-width="1.8" d="M 446.555 583.324 A 263 263 0 0 1 377.793 602.553"/>
        <path class="track-background" data-background-track="2" data-chromosome="9" d="M 373.834 608.103 A 268 268 0 0 1 304.442 607.355 L 305.844 597.454 A 258 258 0 0 0 372.646 598.173 Z"/>
        <path class="track-midline" fill="none" stroke="#ffffff" stroke-width="1.8" d="M 373.24 603.138 A 263 263 0 0 1 305.143 602.405"/>
        <path class="track-background" data-background-track="2" data-chromosome="10" d="M 299.817 606.659 A 268 268 0 0 1 235.394 587.885 L 239.372 578.71 A 258 258 0 0 0 301.391 596.784 Z"/>
        <path class="track-midline" fill="none" stroke="#ffffff" stroke-width="1.8" d="M 300.604 601.722 A 263 263 0 0 1 237.383 583.297"/>
        <path class="track-background" data-background-track="2" data-chromosome="11" d="M 231.119 585.987 A 268 268 0 0 1 173.481 550.387 L 179.769 542.611 A 258 258 0 0 0 235.256 576.883 Z"/>
        <path class="track-midline" fill="none" stroke="#ffffff" stroke-width="1.8" d="M 233.188 581.435 A 263 263 0 0 1 176.625 546.499"/>
        <path class="track-background" data-background-track="2" data-chromosome="12" d="M 169.869 547.414 A 268 268 0 0 1 124.39 498.429 L 132.51 492.592 A 258 258 0 0 0 176.292 539.75 Z"/>
        <path class="track-midline" fill="none" stroke="#ffffff" stroke-width="1.8" d="M 173.081 543.582 A 263 263 0 0 1 128.45 495.51"/>
        <path class="track-background" data-background-track="2" data-chromosome="13" d="M 121.693 494.607 A 268 268 0 0 1 94.25 444.196 L 103.494 440.382 A 258 258 0 0 0 129.914 488.913 Z"/>
        <path class="track-midline" fill="none" stroke="#ffffff" stroke-width="1.8" d="M 125.804 491.76 A 263 263 0 0 1 98.872 442.289"/>
        <path class="track-background" data-background-track="2" data-chromosome="14" d="M 92.504 439.856 A 268 268 0 0 1 77.997 388.115 L 87.848 386.395 A 258 258 0 0 0 101.814 436.205 Z"/>
        <path class="track-midline" fill="none" stroke="#ffffff" stroke-width="1.8" d="M 97.159 438.031 A 263 263 0 0 1 82.923 387.255"/>
        <path class="track-background" data-background-track="2" data-chromosome="15" d="M 77.233 383.501 A 268 268 0 0 1 74.173 332.385 L 84.166 332.744 A 258 258 0 0 0 87.112 381.952 Z"/>
        <path class="track-midline" fill="none" stroke="#ffffff" stroke-width="1.8" d="M 82.172 382.727 A 263 263 0 0 1 79.169 332.564"/>
        <path class="track-background" data-background-track="2" data-chromosome="16" d="M 74.381 327.712 A 268 268 0 0 1 80.627 282.772 L 90.379 284.982 A 258 258 0 0 0 84.367 328.245 Z"/>
        <path class="track-midline" fill="none" stroke="#ffffff" stroke-width="1.8" d="M 79.374 327.979 A 263 263 0 0 1 85.503 283.877"/>
        <path class="track-background" data-background-track="2" data-chromosome="17" d="M 81.7 278.219 A 268 268 0 0 1 94.793 238.498 L 104.017 242.36 A 258 258 0 0 0 91.413 280.599 Z"/>
        <path class="track-midline" fill="none" stroke="#ffffff" stroke-width="1.8" d="M 86.556 279.409 A 263 263 0 0 1 99.405 240.429"/>
        <path class="track-background" data-background-track="2" data-chromosome="18" d="M 96.637 234.2 A 268 268 0 0 1 115.617 198.562 L 124.064 203.914 A 258 258 0 0 0 105.792 238.222 Z"/>
        <path class="track-midline" fill="none" stroke="#ffffff" stroke-width="1.8" d="M 101.214 236.211 A 263 263 0 0 1 119.84 201.238"/>
        <path class="track-background" data-background-track="2" data-chromosome="19" d="M 118.154 194.633 A 268 268 0 0 1 135.682 170.953 L 143.381 177.336 A 258 258 0 0 0 126.507 200.131 Z"/>
        <path class="track-midline" fill="none" stroke="#ffffff" stroke-width="1.8" d="M 122.331 197.382 A 263 263 0 0 1 139.531 174.144"/>
        <path class="track-background" data-background-track="2" data-chromosome="20" d="M 138.699 167.379 A 268 268 0 0 1 161.246 144.131 L 167.991 151.514 A 258 258 0 0 0 146.285 173.894 Z"/>
        <path class="track-midline" fill="none" stroke="#ffffff" stroke-width="1.8" d="M 142.492 170.636 A 263 263 0 0 1 164.619 147.823"/>
        <path class="track-background" data-background-track="2" data-chromosome="21" d="M 164.727 141.007 A 268 268 0 0 1 183 126.261 L 188.933 134.311 A 258 258 0 0 0 171.342 148.506 Z"/>
        <path class="track-midline" fill="none" stroke="#ffffff" stroke-width="1.8" d="M 168.034 144.756 A 263 263 0 0 1 185.967 130.286"/>
        <path class="track-background" data-background-track="2" data-chromosome="22" d="M 186.79 123.519 A 268 268 0 0 1 208.295 109.735 L 213.284 118.401 A 258 258 0 0 0 192.581 131.672 Z"/>
        <path class="track-midline" fill="none" stroke="#ffffff" stroke-width="1.8" d="M 189.685 127.596 A 263 263 0 0 1 210.79 114.068"/>
        <path class="track-background" data-background-track="2" data-chromosome="X" d="M 212.369 107.437 A 268 268 0 0 1 285.584 80.005 L 287.689 89.781 A 258 258 0 0 0 217.206 116.189 Z"/>
        <path class="track-midline" fill="none" stroke="#ffffff" stroke-width="1.8" d="M 214.788 111.813 A 263 263 0 0 1 286.636 84.893"/>
        <path class="track-background" data-background-track="2" data-chromosome="Y" d="M 290.165 79.061 A 268 268 0 0 1 318.642 75.02 L 319.514 84.982 A 258 258 0 0 0 292.099 88.872 Z"/>
        <path class="track-midline" fill="none" stroke="#ffffff" stroke-width="1.8" d="M 291.132 83.966 A 263 263 0 0 1 319.078 80.001"/>
        <path class="track-background" data-background-track="3" data-chromosome="1" d="M 342 92 A 250 250 0 0 1 454.578 118.782 L 450.075 127.711 A 240 240 0 0 0 342 102 Z"/>
        <path class="track-midline" fill="none" stroke="#ffffff" stroke-width="1.8" d="M 342 97 A 245 245 0 0 1 452.326 123.247"/>
        <path class="track-background" data-background-track="3" data-chromosome="2" d="M 458.457 120.781 A 250 250 0 0 1 543.741 194.35 L 535.671 200.256 A 240 240 0 0 0 453.798 129.63 Z"/>
        <path class="track-midline" fill="none" stroke="#ffffff" stroke-width="1.8" d="M 456.127 125.205 A 245 245 0 0 1 539.706 197.303"/>
        <path class="track-background" data-background-track="3" data-chromosome="3" d="M 546.287 197.893 A 250 250 0 0 1 584.698 282.019 L 574.99 284.418 A 240 240 0 0 0 538.116 203.658 Z"/>
        <path class="track-midline" fill="none" stroke="#ffffff" stroke-width="1.8" d="M 542.201 200.775 A 245 245 0 0 1 579.844 283.218"/>
        <path class="track-background" data-background-track="3" data-chromosome="4" d="M 585.708 286.263 A 250 250 0 0 1 589.823 374.92 L 579.91 373.603 A 240 240 0 0 0 575.959 288.493 Z"/>
        <path class="track-midline" fill="none" stroke="#ffffff" stroke-width="1.8" d="M 580.834 287.378 A 245 245 0 0 1 584.867 374.261"/>
        <path class="track-background" data-background-track="3" data-chromosome="5" d="M 589.211 379.24 A 250 250 0 0 1 562.567 459.686 L 553.745 454.979 A 240 240 0 0 0 579.322 377.75 Z"/>
        <path class="track-midline" fill="none" stroke="#ffffff" stroke-width="1.8" d="M 584.267 378.495 A 245 245 0 0 1 558.156 457.332"/>
        <path class="track-background" data-background-track="3" data-chromosome="6" d="M 560.48 463.517 A 250 250 0 0 1 511.075 526.157 L 504.312 518.79 A 240 240 0 0 0 551.741 458.657 Z"/>
        <path class="track-midline" fill="none" stroke="#ffffff" stroke-width="1.8" d="M 556.11 461.087 A 245 245 0 0 1 507.693 522.474"/>
        <path class="track-background" data-background-track="3" data-chromosome="7" d="M 507.835 529.079 A 250 250 0 0 1 445.375 569.626 L 441.24 560.521 A 240 240 0 0 0 501.202 521.596 Z"/>
        <path class="track-midline" fill="none" stroke="#ffffff" stroke-width="1.8" d="M 504.518 525.338 A 245 245 0 0 1 443.308 565.074"/>
        <path class="track-background" data-background-track="3" data-chromosome="8" d="M 441.387 571.395 A 250 250 0 0 1 376.024 589.674 L 374.663 579.767 A 240 240 0 0 0 437.411 562.22 Z"/>
        <path class="track-midline" fill="none" stroke="#ffffff" stroke-width="1.8" d="M 439.399 566.808 A 245 245 0 0 1 375.343 584.72"/>
        <path class="track-background" data-background-track="3" data-chromosome="9" d="M 371.696 590.23 A 250 250 0 0 1 306.965 589.533 L 308.366 579.632 A 240 240 0 0 0 370.508 580.301 Z"/>
        <path class="track-midline" fill="none" stroke="#ffffff" stroke-width="1.8" d="M 371.102 585.265 A 245 245 0 0 1 307.666 584.582"/>
        <path class="track-background" data-background-track="3" data-chromosome="10" d="M 302.65 588.884 A 250 250 0 0 1 242.554 571.37 L 246.532 562.195 A 240 240 0 0 0 304.224 579.008 Z"/>
        <path class="track-midline" fill="none" stroke="#ffffff" stroke-width="1.8" d="M 303.437 583.946 A 245 245 0 0 1 244.543 566.782"/>
        <path class="track-background" data-background-track="3" data-chromosome="11" d="M 238.566 569.599 A 250 250 0 0 1 184.799 536.391 L 191.087 528.615 A 240 240 0 0 0 242.704 560.495 Z"/>
        <path class="track-midline" fill="none" stroke="#ffffff" stroke-width="1.8" d="M 240.635 565.047 A 245 245 0 0 1 187.943 532.503"/>
        <path class="track-background" data-background-track="3" data-chromosome="12" d="M 181.43 533.618 A 250 250 0 0 1 139.006 487.922 L 147.126 482.086 A 240 240 0 0 0 187.853 525.953 Z"/>
        <path class="track-midline" fill="none" stroke="#ffffff" stroke-width="1.8" d="M 184.642 529.785 A 245 245 0 0 1 143.066 485.004"/>
        <path class="track-background" data-background-track="3" data-chromosome="13" d="M 136.49 484.357 A 250 250 0 0 1 110.89 437.332 L 120.134 433.519 A 240 240 0 0 0 144.71 478.663 Z"/>
        <path class="track-midline" fill="none" stroke="#ffffff" stroke-width="1.8" d="M 140.6 481.51 A 245 245 0 0 1 115.512 435.425"/>
        <path class="track-background" data-background-track="3" data-chromosome="14" d="M 109.261 433.284 A 250 250 0 0 1 95.729 385.018 L 105.58 383.297 A 240 240 0 0 0 118.571 429.632 Z"/>
        <path class="track-midline" fill="none" stroke="#ffffff" stroke-width="1.8" d="M 113.916 431.458 A 245 245 0 0 1 100.654 384.158"/>
        <path class="track-background" data-background-track="3" data-chromosome="15" d="M 95.016 380.714 A 250 250 0 0 1 92.161 333.031 L 102.155 333.389 A 240 240 0 0 0 104.895 379.165 Z"/>
        <path class="track-midline" fill="none" stroke="#ffffff" stroke-width="1.8" d="M 99.955 379.939 A 245 245 0 0 1 97.158 333.21"/>
        <path class="track-background" data-background-track="3" data-chromosome="16" d="M 92.356 328.672 A 250 250 0 0 1 98.182 286.75 L 107.934 288.96 A 240 240 0 0 0 102.341 329.205 Z"/>
        <path class="track-midline" fill="none" stroke="#ffffff" stroke-width="1.8" d="M 97.348 328.938 A 245 245 0 0 1 103.058 287.855"/>
        <path class="track-background" data-background-track="3" data-chromosome="17" d="M 99.183 282.503 A 250 250 0 0 1 111.396 245.45 L 120.62 249.312 A 240 240 0 0 0 108.896 284.883 Z"/>
        <path class="track-midline" fill="none" stroke="#ffffff" stroke-width="1.8" d="M 104.039 283.693 A 245 245 0 0 1 116.008 247.381"/>
        <path class="track-background" data-background-track="3" data-chromosome="18" d="M 113.116 241.44 A 250 250 0 0 1 130.821 208.196 L 139.269 213.548 A 240 240 0 0 0 122.272 245.463 Z"/>
        <path class="track-midline" fill="none" stroke="#ffffff" stroke-width="1.8" d="M 117.694 243.451 A 245 245 0 0 1 135.045 210.872"/>
        <path class="track-background" data-background-track="3" data-chromosome="19" d="M 133.189 204.53 A 250 250 0 0 1 149.539 182.441 L 157.238 188.824 A 240 240 0 0 0 141.541 210.029 Z"/>
        <path class="track-midline" fill="none" stroke="#ffffff" stroke-width="1.8" d="M 137.365 207.28 A 245 245 0 0 1 153.389 185.633"/>
        <path class="track-background" data-background-track="3" data-chromosome="20" d="M 152.353 179.107 A 250 250 0 0 1 173.387 157.421 L 180.131 164.804 A 240 240 0 0 0 159.939 185.623 Z"/>
        <path class="track-midline" fill="none" stroke="#ffffff" stroke-width="1.8" d="M 156.146 182.365 A 245 245 0 0 1 176.759 161.112"/>
        <path class="track-background" data-background-track="3" data-chromosome="21" d="M 176.634 154.506 A 250 250 0 0 1 193.679 140.751 L 199.612 148.801 A 240 240 0 0 0 183.248 162.006 Z"/>
        <path class="track-midline" fill="none" stroke="#ffffff" stroke-width="1.8" d="M 179.941 158.256 A 245 245 0 0 1 196.646 144.776"/>
        <path class="track-background" data-background-track="3" data-chromosome="22" d="M 197.214 138.193 A 250 250 0 0 1 217.276 125.335 L 222.265 134.001 A 240 240 0 0 0 203.006 146.346 Z"/>
        <path class="track-midline" fill="none" stroke="#ffffff" stroke-width="1.8" d="M 200.11 142.27 A 245 245 0 0 1 219.77 129.668"/>
        <path class="track-background" data-background-track="3" data-chromosome="X" d="M 221.076 123.191 A 250 250 0 0 1 289.373 97.602 L 291.478 107.378 A 240 240 0 0 0 225.913 131.943 Z"/>
        <path class="track-midline" fill="none" stroke="#ffffff" stroke-width="1.8" d="M 223.494 127.567 A 245 245 0 0 1 290.425 102.49"/>
        <path class="track-background" data-background-track="3" data-chromosome="Y" d="M 293.646 96.721 A 250 250 0 0 1 320.211 92.951 L 321.083 102.913 A 240 240 0 0 0 295.58 106.532 Z"/>
        <path class="track-midline" fill="none" stroke="#ffffff" stroke-width="1.8" d="M 294.613 101.626 A 245 245 0 0 1 320.647 97.932"/>
      </g>
      <g id="track-gains-9e4dde8f9d42f16d9f661616" class="track track-gains">
      </g>
      <g id="track-losses-9e4dde8f9d42f16d9f661616" class="track track-losses">
      </g>
    </g>
    <g id="circos-links-9e4dde8f9d42f16d9f661616" class="circos-links">
      <g id="link-9e4dde8f9d42f16d9f661616-e82d13fa20c21b23a3c5312c" class="circos-event circos-link event-translocation" tabindex="0" role="button" data-link-id="aggregate-9-22" data-event-group-id="cohort-9-22" data-source-segment-id="aggregate-source" data-target-segment-id="aggregate-target" data-event-type="translocation" data-source-chromosome="9" data-source-start="66000000" data-source-end="67717000" data-source-anchor="66858500" data-target-chromosome="22" data-target-start="11000000" data-target-end="12219000" data-target-anchor="11609500" data-attachment-policy="midpoint" data-source-genes="[&quot;ABL1&quot;]" data-target-genes="[&quot;BCR&quot;]" data-methods="[&quot;Karyotype&quot;,&quot;FISH&quot;]" data-aggregate-id="aggregate-9-22" data-aggregate-event-count="6" data-aggregate-patient-count="3" data-aggregate-sample-count="4" data-grouping-description="Exact genomic intervals" data-confidence-distribution="[{&quot;label&quot;:&quot;High&quot;,&quot;count&quot;:4},{&quot;label&quot;:&quot;Medium&quot;,&quot;count&quot;:2}]">
        <path class="circos-link-ribbon" fill="#71dfc0" stroke="#71dfc0" fill-opacity="0.79" stroke-opacity="0.87" d="M 340.932 565.997 C 341.626 420.399 297.924 277.163 216.068 156.751 L 216.492 156.463 C 298.072 277.062 341.374 420.397 340.21 565.993 Z"/>
        <circle class="circos-link-endpoint endpoint-source" aria-hidden="true" fill="#71dfc0" cx="340.571" cy="565.995" r="3"/>
        <circle class="circos-link-endpoint endpoint-target" aria-hidden="true" fill="#71dfc0" cx="216.28" cy="156.607" r="3"/>
      </g>
    </g>
    <g id="circos-labels-9e4dde8f9d42f16d9f661616" class="circos-labels">
      <text class="chromosome-label" data-chromosome="1" x="416.755" y="27.77">1</text>
      <text class="chromosome-label" data-chromosome="2" x="552.978" y="97.424">2</text>
      <text class="chromosome-label" data-chromosome="3" x="635.822" y="207.844">3</text>
      <text class="chromosome-label" data-chromosome="4" x="664.653" y="327.022">4</text>
      <text class="chromosome-label" data-chromosome="5" x="648.621" y="443.551">5</text>
      <text class="chromosome-label" data-chromosome="6" x="595.609" y="542.028">6</text>
      <text class="chromosome-label" data-chromosome="7" x="517.871" y="612.921">7</text>
      <text class="chromosome-label" data-chromosome="8" x="428.988" y="653.066">8</text>
      <text class="chromosome-label" data-chromosome="9" x="338.522" y="664.981">9</text>
      <text class="chromosome-label" data-chromosome="10" x="251.627" y="652.1">10</text>
      <text class="chromosome-label" data-chromosome="11" x="172.269" y="616.81">11</text>
      <text class="chromosome-label" data-chromosome="12" x="105.29" y="561.767">12</text>
      <text class="chromosome-label" data-chromosome="13" x="58.312" y="496.435">13</text>
      <text class="chromosome-label" data-chromosome="14" x="30.993" y="429.198">14</text>
      <text class="chromosome-label" data-chromosome="15" x="19.577" y="361.303">15</text>
      <text class="chromosome-label" data-chromosome="16" x="22.075" y="297.539">16</text>
      <text class="chromosome-label" data-chromosome="17" x="35.235" y="240.886">17</text>
      <text class="chromosome-label" data-chromosome="18" x="56.91" y="190.169">18</text>
      <text class="chromosome-label" data-chromosome="19" x="82.386" y="149.829">19</text>
      <text class="chromosome-label" data-chromosome="20" x="110.14" y="117.122">20</text>
      <text class="chromosome-label" data-chromosome="21" x="139.163" y="90.631">21</text>
      <text class="chromosome-label" data-chromosome="22" x="167.698" y="70.066">22</text>
      <text class="chromosome-label" data-chromosome="X" x="228.674" y="39.533">X</text>
      <text class="chromosome-label" data-chromosome="Y" x="296.622" y="22.203">Y</text>
    </g>
    <g id="circos-legend-9e4dde8f9d42f16d9f661616" class="circos-legend">
      <rect x="16" y="634" width="12" height="12" fill="#d7191c" fill-opacity="0.88"/><text class="legend-label" x="34" y="640">Gain / Duplication / Amplification</text>
      <rect x="16" y="652" width="12" height="12" fill="#2c7bb6" fill-opacity="0.88"/><text class="legend-label" x="34" y="658">Loss / Deletion</text>
      <rect x="16" y="670" width="12" height="12" fill="#71dfc0" fill-opacity="0.88"/><text class="legend-label" x="34" y="676">Translocation</text>
    </g>
  </g>
</svg>
